<svg xmlns="http://www.w3.org/2000/svg" viewBox="0 0 96 96">
  <rect width="96" height="96" fill="#f3e8ff"/>
  <circle cx="48" cy="40" r="22" fill="#efc5a4"/>
  <path d="M24 41c0-20 10-31 24-31 16 0 25 11 25 31l-8-6c-2-6-5-11-9-15-7 8-17 13-32 15z" fill="#3b274d"/>
  <circle cx="73" cy="28" r="10" fill="#3b274d"/>
  <path d="M16 96c3-22 15-33 32-33s29 11 32 33z" fill="#8055a5"/>
  <circle cx="40" cy="42" r="2" fill="#3b274d"/>
  <circle cx="57" cy="42" r="2" fill="#3b274d"/>
  <path d="M42 52c4 3 8 3 12 0" fill="none" stroke="#945f4d" stroke-width="2.5" stroke-linecap="round"/>
</svg>
