<svg xmlns="http://www.w3.org/2000/svg" viewBox="0 0 96 96">
  <rect width="96" height="96" fill="#ccfbf1"/>
  <circle cx="48" cy="39" r="22" fill="#e9bb96"/>
  <path d="M25 34c3-17 13-24 25-24 13 0 22 8 23 24-7-3-13-8-17-15-7 8-16 12-31 15z" fill="#173b3f"/>
  <path d="M17 96c3-23 14-34 31-34s28 11 31 34z" fill="#16877a"/>
  <rect x="32" y="35" width="13" height="9" rx="4" fill="none" stroke="#173b3f" stroke-width="2"/>
  <rect x="51" y="35" width="13" height="9" rx="4" fill="none" stroke="#173b3f" stroke-width="2"/>
  <path d="M45 39h6M43 52c3 2 7 2 10 0" fill="none" stroke="#80513f" stroke-width="2" stroke-linecap="round"/>
</svg>
